<?xml version="1.0" encoding="UTF-8" standalone="no"?>
<svg
   xmlns:dc="http://purl.org/dc/elements/1.1/"
   xmlns:cc="http://creativecommons.org/ns#"
   xmlns:rdf="http://www.w3.org/1999/02/22-rdf-syntax-ns#"
   xmlns:svg="http://www.w3.org/2000/svg"
   xmlns="http://www.w3.org/2000/svg"
   xmlns:sodipodi="http://sodipodi.sourceforge.net/DTD/sodipodi-0.dtd"
   xmlns:inkscape="http://www.inkscape.org/namespaces/inkscape"
   width="878.71399pt"
   height="459.26474pt"
   viewBox="0 0 878.71399 459.26474"
   version="1.1"
   id="svg12223"
   inkscape:version="0.91 r13725"
   sodipodi:docname="Jornal Hoje 1971.svg">
  <metadata
     id="metadata12233">
    <rdf:RDF>
      <cc:Work
         rdf:about="">
        <dc:format>image/svg+xml</dc:format>
        <dc:type
           rdf:resource="http://purl.org/dc/dcmitype/StillImage" />
        <dc:title></dc:title>
      </cc:Work>
    </rdf:RDF>
  </metadata>
  <defs
     id="defs12231" />
  <sodipodi:namedview
     pagecolor="#ffffff"
     bordercolor="#666666"
     borderopacity="1"
     objecttolerance="10"
     gridtolerance="10"
     guidetolerance="10"
     inkscape:pageopacity="0"
     inkscape:pageshadow="2"
     inkscape:window-width="1366"
     inkscape:window-height="705"
     id="namedview12229"
     showgrid="false"
     fit-margin-top="0"
     fit-margin-left="0"
     fit-margin-right="0"
     fit-margin-bottom="0"
     inkscape:zoom="0.3776"
     inkscape:cx="277.92567"
     inkscape:cy="293.48002"
     inkscape:window-x="-8"
     inkscape:window-y="-8"
     inkscape:window-maximized="1"
     inkscape:current-layer="svg12223" />
  <g
     id="#ffffffff"
     transform="translate(-27.659467,-25.519269)" />
  <g
     id="#000000ff"
     transform="translate(-27.659467,-25.519269)">
    <path
       d="m 232.32,26.47 c 53.44,-5.13 108.39,10.69 151.31,42.87 41.9,31.1 72.35,77.06 85.04,127.65 11.62,45.94 9.18,95.43 -7.35,139.87 -13.46,36.45 -36.33,69.4 -65.86,94.67 -30.12,25.78 -67.2,43.48 -106.33,50.07 -45.56,7.94 -93.61,0.93 -134.92,-19.91 C 100.74,435.02 59.2,386.2 40.22,329.67 19.5,269.24 24.45,200.29 54.81,143.94 74.05,107.82 103.29,77.06 138.6,56.33 167.04,39.48 199.34,29.01 232.32,26.47 m 14.19,37.23 c -4.23,2.18 -6.91,6.28 -9.9,9.81 -20.27,26.03 -38.52,54.16 -49.35,85.52 -6.6,19.11 -10.69,39.01 -13.61,59 -0.45,5.47 -1.82,11.19 -0.09,16.56 1.5,3.66 5.92,4.39 9.4,4.59 15.02,0.14 30.05,-0.02 45.07,-0.01 22.98,-0.71 45.99,-0.15 68.98,-0.76 9.32,-0.29 18.69,0.07 27.97,-1.07 3.35,-0.23 6.82,-2.71 6.76,-6.35 0.41,-7.76 -1.63,-15.37 -2.82,-22.98 -4.01,-20.88 -8.73,-41.83 -17.22,-61.41 -11.56,-25.76 -26.71,-49.95 -44.91,-71.56 -3.57,-3.94 -6.87,-8.36 -11.55,-11.07 -2.62,-1.59 -6.04,-1.82 -8.73,-0.27 m -71.28,16.47 c -10.14,3.24 -18.95,9.4 -27.76,15.2 -18.13,12.51 -34.8,27.51 -47.7,45.46 -17.08,24.49 -29.24,52.64 -34.03,82.19 -0.54,3.64 -1.19,7.32 -0.95,11.02 0.26,3.61 3.63,6.78 7.31,6.4 18.33,0.15 36.66,0.01 54.98,-0.65 3.52,0.08 6.27,-3.28 6.23,-6.66 2.43,-37.15 10.99,-73.93 25.69,-108.16 4.85,-12.47 11.55,-24.07 18,-35.75 1.28,-2.55 3.66,-5.12 2.63,-8.19 -0.98,-1.56 -2.88,-1.62 -4.4,-0.86 m 148.12,2.59 c 6.99,14.14 14.57,28.02 21.61,42.15 6.38,13.98 11.69,28.46 15.83,43.26 3.78,16.22 6.88,32.59 9.81,48.98 0.99,4.77 0.82,9.71 2.04,14.44 0.88,3.21 4.39,4.69 7.43,4.96 16.27,1.01 32.59,0.72 48.89,0.72 3.58,0.25 7.78,-1.47 8.57,-5.34 1.09,-5.74 -0.82,-11.43 -1.95,-17.01 -4.03,-19.78 -10.61,-39.15 -20.57,-56.75 -9.3,-16.14 -20.95,-30.91 -34.4,-43.79 -10.43,-9.44 -22.14,-17.37 -34.08,-24.77 -4.77,-2.79 -9.43,-5.85 -14.57,-7.95 -2.79,-1.15 -6.78,-2.02 -8.61,1.1 m 56.53,191.68 c -3.72,-0.13 -7.43,2.47 -7.46,6.42 -2.08,17.29 -4.81,34.51 -8.26,51.58 -4.5,18.02 -10.97,35.48 -17.82,52.72 -5.21,11.87 -11.3,23.33 -17.01,34.96 -1.34,2.55 -1.92,5.39 -1.85,8.26 4.01,1.79 8.4,0.24 11.94,-1.88 13.77,-7.79 26.47,-17.35 38.61,-27.46 8.09,-7.32 15.04,-15.79 21.72,-24.38 10.92,-14.32 20.75,-29.67 27.17,-46.57 5.97,-15.69 9.94,-32.26 10.84,-49.04 0.41,-3.26 -2.49,-5.86 -5.64,-5.57 -17.41,-0.4 -34.87,-0.31 -52.24,0.96 m -119.61,0.94 c -26.78,0.28 -53.56,0.78 -80.34,1.17 -4.39,-0.24 -7.24,4.5 -6.3,8.49 2.98,27.8 10.25,55.14 21.37,80.79 11.79,26.52 26.84,52 47.42,72.69 3.35,3.18 6.2,7.28 10.59,9.09 5.43,1.5 9.58,-3.28 12.73,-6.95 38.6,-43.51 61.55,-99.93 66.96,-157.65 0.68,-3.34 -1.49,-6.8 -4.83,-7.5 -5.89,-1.27 -11.96,-0.44 -17.93,-0.68 -16.55,0.56 -33.11,0.34 -49.67,0.55 m -191.86,2.17 c -2.14,0.88 -3.07,3.3 -2.83,5.49 0.41,8.53 2.6,16.85 4.83,25.06 3.44,13.58 9.39,26.35 15.93,38.69 8.14,15.4 17.66,30.36 30.52,42.28 16.54,18.13 36.93,32.77 59.57,42.27 2.21,0.48 5.82,1.49 6.94,-1.19 -0.21,-4 -3.06,-7.15 -4.72,-10.64 -10.48,-19.9 -20,-40.34 -28.15,-61.32 -4.12,-10.47 -6.55,-21.49 -8.97,-32.45 -2.88,-14.45 -5.92,-28.91 -7.34,-43.59 -0.65,-2.78 -3.39,-4.78 -6.19,-4.84 -16.32,-0.44 -32.66,-0.66 -49,-0.61 -3.52,0.11 -7.27,-0.64 -10.59,0.85 z"
       id="path12227"
       inkscape:connector-curvature="0"
       style="opacity:1;fill:#000000" />
  </g>
  <path
     style="fill:#000000;fill-opacity:1;stroke:none;stroke-width:1;stroke-miterlimit:4;stroke-dasharray:none;stroke-opacity:1"
     d="m 480.81553,50.752606 0,355.931254 95.33907,0 0,-120.76251 207.22033,0 0,120.76251 95.33904,0 0,-355.931254 -95.33904,0 0,129.235944 -207.22033,0 0,-129.235944 -95.33907,0 z"
     id="rect12786"
     inkscape:connector-curvature="0" />
</svg>
